<svg width="24" height="24" viewBox="0 0 24 24" fill="none" xmlns="http://www.w3.org/2000/svg">
<path d="M19.8706 23.2499L20.2994 23.4817C20.2873 23.4883 20.2807 23.4905 20.2775 23.4915C20.2724 23.4931 20.2601 23.4967 20.2304 23.4988C20.2235 23.4962 20.2138 23.4924 20.2009 23.4868C20.121 23.4524 19.9785 23.3792 19.7031 23.2222C19.419 23.0602 19.0133 22.8207 18.4212 22.4664L19.8706 23.2499ZM8.65746 20.6481C8.51324 20.7351 8.36649 20.8238 8.21782 20.9137C6.33086 22.0497 4.56755 23.1112 4.29103 23.2733L4.28781 23.2752C4.07162 23.4042 3.96997 23.4583 3.90667 23.4841C3.88122 23.4944 3.86991 23.4967 3.86559 23.4975C3.8611 23.4983 3.85175 23.4997 3.82832 23.5C3.786 23.4983 3.76837 23.4937 3.76034 23.4911C3.75272 23.4887 3.7356 23.4825 3.69998 23.4578L3.69726 23.4559C3.69718 23.4559 3.69705 23.4558 3.69689 23.4557C3.69503 23.4545 3.68797 23.4501 3.67445 23.4353L4.01221 23.2464L8.65746 20.6481ZM4.88288 1.06855C4.93322 1.03482 4.99132 0.997195 5.04919 0.960745L4.57432 1.33197C4.69563 1.21579 4.81941 1.11108 4.88288 1.06855ZM18.3229 0.622955H5.80779C5.8203 0.61904 5.83274 0.615219 5.84504 0.611508L6.19443 0.506159L12.0354 0.501529C14.9792 0.499183 16.451 0.498033 17.233 0.509678C17.9693 0.520642 18.05 0.543319 18.1523 0.572085C18.1582 0.573724 18.1641 0.575382 18.1702 0.57706C18.2176 0.590371 18.2696 0.606056 18.3229 0.622955ZM8.01002 2.11188C9.05108 2.10369 10.4667 2.09783 12.0216 2.09549L12.0217 2.09549C13.8661 2.09314 15.28 2.09549 16.2533 2.10251C16.7402 2.10602 17.115 2.11069 17.3775 2.11646C17.5091 2.11936 17.6099 2.12248 17.6814 2.12574C17.7384 2.12833 17.7622 2.13054 17.7659 2.13059C17.8681 2.15299 18.0437 2.21098 18.1355 2.25316C18.2193 2.29475 18.3942 2.41604 18.4939 2.50888C18.5658 2.5767 18.6714 2.70259 18.8676 3.09119L18.8768 12.3599L18.8768 12.3603C18.8814 14.9431 18.8826 17.2902 18.8809 18.9914C18.8801 19.7682 18.8787 20.41 18.8767 20.8778C18.6775 20.7584 18.4331 20.6117 18.1378 20.434C17.0592 19.7851 15.3023 18.7246 12.583 17.0792L12.4637 17.007H12.3242H11.7178H11.5782L11.4588 17.0792L7.95149 19.2028C6.98643 19.7862 6.1066 20.3156 5.4665 20.699C5.35971 20.763 5.25964 20.8229 5.167 20.8782C5.16602 20.4281 5.16584 19.8176 5.16636 19.0819C5.16753 17.4363 5.17219 15.1665 5.17919 12.6702L5.17919 12.6701C5.18619 9.91391 5.19668 7.60942 5.20891 5.96737C5.21503 5.1462 5.22158 4.49154 5.22833 4.02918C5.23171 3.79782 5.23512 3.61596 5.23852 3.486C5.24126 3.38121 5.24375 3.32636 5.24469 3.3056C5.24506 3.29739 5.24519 3.29451 5.245 3.29599L4.74916 3.23164L5.24473 3.29802C5.26997 3.10959 5.31335 2.97645 5.3837 2.8435C5.44651 2.73279 5.57399 2.56699 5.65045 2.49476C5.7456 2.41064 5.90848 2.29877 5.99605 2.25287C6.10472 2.20476 6.24451 2.15534 6.31553 2.13722C6.33576 2.13612 6.366 2.13488 6.40737 2.13357C6.49079 2.13092 6.60945 2.12829 6.76094 2.12574C7.06336 2.12065 7.48929 2.11598 8.01002 2.11188ZM6.29593 2.13853C6.2959 2.13853 6.29662 2.13845 6.29822 2.13833L6.29593 2.13853Z" stroke="#D9D9D9"/>
</svg>
