<svg width="126" height="22" viewBox="0 0 126 22" fill="none" xmlns="http://www.w3.org/2000/svg">
<path d="M10.1033 1.81699C10.4701 1.07374 11.5299 1.07374 11.8967 1.81699L14.0001 6.07896C14.1458 6.37411 14.4274 6.57868 14.7531 6.62601L19.4565 7.30945C20.2767 7.42863 20.6042 8.4366 20.0107 9.01514L16.6073 12.3326C16.3716 12.5624 16.264 12.8934 16.3197 13.2178L17.1231 17.9021C17.2632 18.719 16.4058 19.342 15.6722 18.9563L11.4653 16.7446C11.174 16.5915 10.826 16.5915 10.5347 16.7446L6.32784 18.9563C5.59421 19.342 4.73677 18.719 4.87688 17.9021L5.68032 13.2178C5.73596 12.8934 5.62841 12.5624 5.39272 12.3326L1.98933 9.01514C1.39581 8.4366 1.72332 7.42863 2.54354 7.30945L7.24691 6.62601C7.57262 6.57868 7.85419 6.37411 7.99985 6.07896L10.1033 1.81699Z" fill="#FFB800"/>
<path d="M36.1033 1.81699C36.4701 1.07374 37.5299 1.07374 37.8967 1.81699L40.0001 6.07896C40.1458 6.37411 40.4274 6.57868 40.7531 6.62601L45.4565 7.30945C46.2767 7.42863 46.6042 8.4366 46.0107 9.01514L42.6073 12.3326C42.3716 12.5624 42.264 12.8934 42.3197 13.2178L43.1231 17.9021C43.2632 18.719 42.4058 19.342 41.6722 18.9563L37.4653 16.7446C37.174 16.5915 36.826 16.5915 36.5347 16.7446L32.3278 18.9563C31.5942 19.342 30.7368 18.719 30.8769 17.9021L31.6803 13.2178C31.736 12.8934 31.6284 12.5624 31.3927 12.3326L27.9893 9.01514C27.3958 8.4366 27.7233 7.42863 28.5435 7.30945L33.2469 6.62601C33.5726 6.57868 33.8542 6.37411 33.9999 6.07896L36.1033 1.81699Z" fill="#FFB800"/>
<path d="M62.1033 1.81699C62.4701 1.07374 63.5299 1.07374 63.8967 1.81699L66.0001 6.07896C66.1458 6.37411 66.4274 6.57868 66.7531 6.62601L71.4565 7.30945C72.2767 7.42863 72.6042 8.4366 72.0107 9.01514L68.6073 12.3326C68.3716 12.5624 68.264 12.8934 68.3197 13.2178L69.1231 17.9021C69.2632 18.719 68.4058 19.342 67.6722 18.9563L63.4653 16.7446C63.174 16.5915 62.826 16.5915 62.5347 16.7446L58.3278 18.9563C57.5942 19.342 56.7368 18.719 56.8769 17.9021L57.6803 13.2178C57.736 12.8934 57.6284 12.5624 57.3927 12.3326L53.9893 9.01514C53.3958 8.4366 53.7233 7.42863 54.5435 7.30945L59.2469 6.62601C59.5726 6.57868 59.8542 6.37411 59.9999 6.07896L62.1033 1.81699Z" fill="#FFB800"/>
<path d="M88.1033 1.81699C88.4701 1.07374 89.5299 1.07374 89.8967 1.81699L92.0001 6.07896C92.1458 6.37411 92.4274 6.57868 92.7531 6.62601L97.4565 7.30945C98.2767 7.42863 98.6042 8.4366 98.0107 9.01514L94.6073 12.3326C94.3716 12.5624 94.264 12.8934 94.3197 13.2178L95.1231 17.9021C95.2632 18.719 94.4058 19.342 93.6722 18.9563L89.4653 16.7446C89.174 16.5915 88.826 16.5915 88.5347 16.7446L84.3278 18.9563C83.5942 19.342 82.7368 18.719 82.8769 17.9021L83.6803 13.2178C83.736 12.8934 83.6284 12.5624 83.3927 12.3326L79.9893 9.01514C79.3958 8.4366 79.7233 7.42863 80.5435 7.30945L85.2469 6.62601C85.5726 6.57868 85.8542 6.37411 85.9999 6.07896L88.1033 1.81699Z" fill="#D9D9D9"/>
<path d="M114.103 1.81699C114.47 1.07374 115.53 1.07374 115.897 1.81699L118 6.07896C118.146 6.37411 118.427 6.57868 118.753 6.62601L123.456 7.30945C124.277 7.42863 124.604 8.4366 124.011 9.01514L120.607 12.3326C120.372 12.5624 120.264 12.8934 120.32 13.2178L121.123 17.9021C121.263 18.719 120.406 19.342 119.672 18.9563L115.465 16.7446C115.174 16.5915 114.826 16.5915 114.535 16.7446L110.328 18.9563C109.594 19.342 108.737 18.719 108.877 17.9021L109.68 13.2178C109.736 12.8934 109.628 12.5624 109.393 12.3326L105.989 9.01514C105.396 8.4366 105.723 7.42863 106.544 7.30945L111.247 6.62601C111.573 6.57868 111.854 6.37411 112 6.07896L114.103 1.81699Z" fill="#D9D9D9"/>
</svg>
