<svg width="127" height="24" viewBox="0 0 127 24" fill="none" xmlns="http://www.w3.org/2000/svg">
<path d="M114.684 16V14.968H116.556V9.496L116.568 8.98H116.544C116.48 9.1 116.344 9.264 116.136 9.472L115.344 10.24L114.624 9.496L116.652 7.528H117.708V14.968H119.568V16H114.684ZM120.814 16V14.968H122.686V9.496L122.698 8.98H122.674C122.61 9.1 122.474 9.264 122.266 9.472L121.474 10.24L120.754 9.496L122.782 7.528H123.838V14.968H125.698V16H120.814Z" fill="#828282"/>
<path d="M32.72 16C32.68 15.744 32.66 15.528 32.66 15.352C32.66 14.944 32.736 14.564 32.888 14.212C33.04 13.86 33.236 13.556 33.476 13.3C33.724 13.044 33.996 12.804 34.292 12.58C34.588 12.348 34.884 12.132 35.18 11.932C35.484 11.732 35.756 11.532 35.996 11.332C36.244 11.132 36.444 10.912 36.596 10.672C36.748 10.424 36.824 10.168 36.824 9.904C36.824 9.488 36.68 9.152 36.392 8.896C36.104 8.632 35.736 8.5 35.288 8.5C34.944 8.5 34.616 8.6 34.304 8.8C34 9 33.756 9.26 33.572 9.58L32.696 8.992C32.952 8.52 33.316 8.136 33.788 7.84C34.26 7.536 34.792 7.384 35.384 7.384C36.168 7.384 36.808 7.608 37.304 8.056C37.8 8.504 38.048 9.092 38.048 9.82C38.048 10.252 37.948 10.656 37.748 11.032C37.548 11.408 37.296 11.72 36.992 11.968C36.696 12.208 36.372 12.456 36.02 12.712C35.668 12.968 35.34 13.196 35.036 13.396C34.732 13.596 34.476 13.836 34.268 14.116C34.068 14.388 33.964 14.672 33.956 14.968H38.18V16H32.72ZM39.6069 14.992L40.2549 14.092C40.5029 14.356 40.8109 14.576 41.1789 14.752C41.5469 14.928 41.9229 15.016 42.3069 15.016C42.7869 15.016 43.1949 14.872 43.5309 14.584C43.8669 14.288 44.0349 13.916 44.0349 13.468C44.0349 12.972 43.8429 12.588 43.4589 12.316C43.0829 12.044 42.6149 11.908 42.0549 11.908H41.4789L41.2029 11.272L43.0509 9.1C43.1309 9.004 43.2149 8.912 43.3029 8.824C43.3909 8.728 43.4589 8.656 43.5069 8.608L43.5789 8.548V8.524C43.4109 8.548 43.1709 8.56 42.8589 8.56H39.9909V7.528H45.0549V8.284L42.7509 10.948C43.1589 10.988 43.5389 11.092 43.8909 11.26C44.2509 11.428 44.5629 11.704 44.8269 12.088C45.0989 12.464 45.2349 12.912 45.2349 13.432C45.2349 14.176 44.9669 14.816 44.4309 15.352C43.8949 15.88 43.2029 16.144 42.3549 16.144C41.8509 16.144 41.3549 16.044 40.8669 15.844C40.3789 15.644 39.9589 15.36 39.6069 14.992ZM46.8075 16C46.7675 15.744 46.7475 15.528 46.7475 15.352C46.7475 14.944 46.8235 14.564 46.9755 14.212C47.1275 13.86 47.3235 13.556 47.5635 13.3C47.8115 13.044 48.0835 12.804 48.3795 12.58C48.6755 12.348 48.9715 12.132 49.2675 11.932C49.5715 11.732 49.8435 11.532 50.0835 11.332C50.3315 11.132 50.5315 10.912 50.6835 10.672C50.8355 10.424 50.9115 10.168 50.9115 9.904C50.9115 9.488 50.7675 9.152 50.4795 8.896C50.1915 8.632 49.8235 8.5 49.3755 8.5C49.0315 8.5 48.7035 8.6 48.3915 8.8C48.0875 9 47.8435 9.26 47.6595 9.58L46.7835 8.992C47.0395 8.52 47.4035 8.136 47.8755 7.84C48.3475 7.536 48.8795 7.384 49.4715 7.384C50.2555 7.384 50.8955 7.608 51.3915 8.056C51.8875 8.504 52.1355 9.092 52.1355 9.82C52.1355 10.252 52.0355 10.656 51.8355 11.032C51.6355 11.408 51.3835 11.72 51.0795 11.968C50.7835 12.208 50.4595 12.456 50.1075 12.712C49.7555 12.968 49.4275 13.196 49.1235 13.396C48.8195 13.596 48.5635 13.836 48.3555 14.116C48.1555 14.388 48.0515 14.672 48.0435 14.968H52.2675V16H46.8075ZM53.8504 16V14.968H55.7224V9.496L55.7344 8.98H55.7104C55.6464 9.1 55.5104 9.264 55.3024 9.472L54.5104 10.24L53.7904 9.496L55.8184 7.528H56.8744V14.968H58.7344V16H53.8504Z" fill="#828282"/>
<g clip-path="url(#clip0_1867_10776)">
<path d="M23.9361 12.8586C23.831 12.5099 23.6135 12.2058 23.3177 11.994C23.8306 11.5704 24.0442 10.8826 23.8615 10.2423C23.7307 9.80696 23.4258 9.44532 23.0194 9.24324C22.6136 9.04298 22.1441 9.01646 21.7185 9.16994L21.5116 9.24506C21.5662 8.9298 21.5292 8.60562 21.4047 8.31101C21.0347 7.49155 20.0913 7.10278 19.2527 7.42413L13.2929 9.60245L14.738 8.33632C15.5955 7.58166 15.6814 6.27382 14.9298 5.41326C14.5935 5.02388 14.0513 4.88478 13.5698 5.06458C13.4293 5.11723 13.2994 5.19438 13.186 5.29258L9.89461 8.11581L6.38657 9.43459C6.11779 9.53624 5.87287 9.69255 5.66714 9.89362L3.45752 11.6965C3.4466 11.7056 3.43609 11.7152 3.42599 11.7253L3.37809 11.7729C3.03919 12.0734 2.76254 12.4376 2.56388 12.8448H0.82775C0.370628 12.8448 0 13.2162 0 13.6742V19.8801C0 20.3381 0.370628 20.7095 0.82775 20.7095H2.59339C2.97251 21.4757 4.2307 22.3648 5.09483 22.3648H14.8019C15.701 22.3836 16.457 21.6928 16.5207 20.7939C16.5378 20.4752 16.4625 20.1585 16.3038 19.8817H17.2797C17.8839 19.8856 18.4463 19.5725 18.7622 19.0564L21.3738 18.1051C22.2236 17.8117 22.6975 16.905 22.4543 16.038C22.3612 15.7324 22.1815 15.4605 21.9374 15.255L22.8543 14.9209C23.7055 14.6317 24.1812 13.725 23.9361 12.8586ZM22.0013 9.9495C22.2131 9.87033 22.4483 9.8835 22.6502 9.98555C22.8535 10.0872 23.0056 10.2684 23.0707 10.4865C23.1815 10.9287 22.9323 11.3813 22.4998 11.5232L21.7935 11.7828L21.7877 11.785L18.1824 13.0995C18.1175 12.4779 17.7091 11.946 17.1261 11.7241L20.4371 10.5169H20.4509L22.0013 9.9495ZM13.5714 10.3804L19.535 8.20409C19.9596 8.03644 20.4418 8.22293 20.644 8.63296C20.7328 8.84091 20.7328 9.07619 20.644 9.28435C20.5553 9.4923 20.3856 9.65509 20.1744 9.73467C20.1714 9.73467 20.1689 9.73467 20.1665 9.73467L15.5092 11.4349C15.4249 11.4671 15.354 11.5269 15.3079 11.6046H10.1272L11.9159 10.9121C12.2602 10.7791 12.5626 10.5557 12.7911 10.2656C13.014 10.4361 13.3089 10.4796 13.5714 10.3804ZM13.7215 5.92413C13.7607 5.8891 13.8054 5.86095 13.8541 5.84131C14.0144 5.78117 14.1948 5.82774 14.3064 5.95774C14.7568 6.47387 14.7055 7.25789 14.1918 7.71064L13.2026 8.58031C13.1791 8.46064 13.145 8.3432 13.1003 8.22981C12.9514 7.84671 12.6224 7.56242 12.2221 7.4709H12.2156C12.1451 7.4549 12.0733 7.44498 12.0012 7.44154L11.9721 7.43607C11.9676 7.43607 11.9634 7.43607 11.9593 7.43607L13.7215 5.92413ZM0.82775 13.6742H2.47779V19.8801H0.82775V13.6742ZM17.2797 19.0528H11.5653C11.3367 19.0528 11.1514 19.2384 11.1514 19.4675C11.1514 19.6965 11.3367 19.8821 11.5653 19.8821H14.8698C15.0963 19.8817 15.313 19.9749 15.469 20.1397C15.6248 20.3045 15.706 20.5262 15.6937 20.753C15.646 21.2072 15.2576 21.5482 14.8019 21.5354H5.09483C4.39116 21.5354 3.35324 20.573 3.30555 20.2948V13.2595C3.30555 13.0149 3.74893 12.5733 3.96112 12.3605L3.99547 12.3265L6.2049 10.524C6.21581 10.515 6.22611 10.5057 6.23581 10.4956C6.36111 10.3707 6.51126 10.2737 6.67657 10.2111L10.1913 8.89011C10.206 8.88829 10.2204 8.88545 10.2347 8.88181L11.7868 8.29744C11.833 8.27942 11.8819 8.26929 11.9317 8.26707C12.0982 8.27112 12.2463 8.37499 12.3069 8.5305C12.5533 9.17055 12.236 9.88957 11.5976 10.1378L9.80892 10.8315C9.4391 10.9769 9.22428 11.3649 9.29724 11.7561C9.37039 12.1475 9.71051 12.4316 10.1076 12.4332H16.4582C16.9127 12.4212 17.2995 12.7624 17.3456 13.2156C17.3686 13.6132 17.1031 13.97 16.7161 14.0611C16.6797 14.0692 16.6429 14.0747 16.6059 14.0777C16.5785 14.082 16.5508 14.0846 16.5231 14.086H11.5653C11.3367 14.086 11.1514 14.2717 11.1514 14.5007C11.1514 14.7297 11.3367 14.9154 11.5653 14.9154H18.1857C18.4104 14.9178 18.6244 15.0122 18.7778 15.1766C18.9312 15.3412 19.0106 15.5615 18.9976 15.7863C18.9518 16.2342 18.5724 16.5732 18.1232 16.5679H17.3654C17.3626 16.5679 17.3599 16.5679 17.3575 16.5679H11.5653C11.3367 16.5679 11.1514 16.7536 11.1514 16.9826C11.1514 17.2116 11.3367 17.3973 11.5653 17.3973H17.3476C17.5741 17.3971 17.7908 17.4902 17.9466 17.655C18.1026 17.8198 18.1838 18.0416 18.1715 18.2681C18.1252 18.7233 17.7362 19.0655 17.2797 19.0528ZM21.0899 17.3268L19.013 18.0833C18.9904 17.7996 18.8938 17.5271 18.7333 17.2924C19.2929 17.095 19.7056 16.6141 19.8167 16.0301L20.5911 15.7464C20.8039 15.6697 21.0387 15.6832 21.241 15.7843C21.4435 15.8853 21.5957 16.0649 21.6626 16.2814C21.7713 16.726 21.5225 17.18 21.0899 17.3268ZM22.5728 14.1411L20.3096 14.9664L19.7431 15.1738C19.5109 14.5186 18.8903 14.0822 18.1964 14.0865H18.1857C18.1816 14.0865 18.1778 14.0865 18.1737 14.0865H17.972C17.9779 14.0765 17.9822 14.0654 17.9874 14.0549L22.0716 12.5662H22.0764C22.2892 12.4889 22.5245 12.503 22.7264 12.6051C22.9284 12.7071 23.0796 12.8879 23.1443 13.1052C23.2532 13.5472 23.0042 13.9986 22.5728 14.1411Z" fill="#828282"/>
<path d="M12.4158 3.70381C12.6444 3.70381 12.8297 3.51813 12.8297 3.28912V2.04506C12.8297 1.81605 12.6444 1.63037 12.4158 1.63037C12.1873 1.63037 12.002 1.81605 12.002 2.04506V3.28912C12.002 3.51813 12.1873 3.70381 12.4158 3.70381Z" fill="#828282"/>
<path d="M14.9004 4.06306C15.0984 4.17746 15.3514 4.10963 15.4658 3.91119L16.0866 2.83297C16.199 2.63494 16.1307 2.38285 15.9336 2.26905C15.7366 2.15505 15.4848 2.22167 15.3696 2.41828L14.7488 3.49651C14.6346 3.69494 14.7025 3.94845 14.9004 4.06306Z" fill="#828282"/>
<path d="M9.36826 3.91119C9.44182 4.04058 9.57863 4.12056 9.72717 4.12097C9.8757 4.12137 10.0131 4.0418 10.0871 3.91281C10.161 3.78383 10.1602 3.62488 10.0853 3.49651L9.46445 2.41828C9.34926 2.22167 9.09746 2.15505 8.90043 2.26905C8.70339 2.38285 8.63509 2.63494 8.74745 2.83297L9.36826 3.91119Z" fill="#828282"/>
<path d="M6.41559 4.89242L7.4917 5.51445C7.61983 5.58957 7.77826 5.59038 7.9072 5.51627C8.03593 5.44216 8.11514 5.30447 8.11494 5.15585C8.11454 5.00702 8.03471 4.86974 7.90558 4.79624L6.82946 4.17421C6.63162 4.06142 6.38022 4.12986 6.26645 4.32728C6.15267 4.52471 6.21936 4.777 6.41559 4.89242Z" fill="#828282"/>
<path d="M5.79473 7.85061H7.03636C7.26492 7.85061 7.45024 7.66494 7.45024 7.43593C7.45024 7.20692 7.26492 7.02124 7.03636 7.02124H5.79473C5.56617 7.02124 5.38086 7.20692 5.38086 7.43593C5.38086 7.66494 5.56617 7.85061 5.79473 7.85061Z" fill="#828282"/>
</g>
<path d="M69.368 7.096H70.16V18.328H69.368V7.096Z" fill="#E8E8E8"/>
<path d="M98 4H86V20L92 17.5L98 20V4Z" stroke="#828282" stroke-width="0.8"/>
<defs>
<clipPath id="clip0_1867_10776">
<rect width="24" height="24" fill="white"/>
</clipPath>
</defs>
</svg>
