<svg width="24" height="24" viewBox="0 0 24 24" fill="none" xmlns="http://www.w3.org/2000/svg">
<path d="M19 18.2829L15.687 14.9749C16.697 13.7811 17.2065 12.2432 17.109 10.6826C17.0115 9.12191 16.3146 7.65935 15.1639 6.60058C14.0132 5.54181 12.4977 4.9688 10.9344 5.00131C9.37103 5.03383 7.88075 5.66935 6.77505 6.77505C5.66935 7.88075 5.03383 9.37103 5.00131 10.9344C4.9688 12.4977 5.54181 14.0132 6.60058 15.1639C7.65935 16.3146 9.12191 17.0115 10.6826 17.109C12.2432 17.2065 13.7811 16.697 14.9749 15.687L18.2829 19L19 18.2829ZM11.0659 16.1163C10.0671 16.1163 9.09064 15.8201 8.26011 15.2651C7.42959 14.7102 6.78228 13.9214 6.40003 12.9986C6.01778 12.0758 5.91777 11.0603 6.11264 10.0807C6.3075 9.10099 6.7885 8.2011 7.4948 7.4948C8.2011 6.7885 9.10099 6.3075 10.0807 6.11264C11.0603 5.91777 12.0758 6.01778 12.9986 6.40003C13.9214 6.78228 14.7102 7.42959 15.2651 8.26011C15.8201 9.09064 16.1163 10.0671 16.1163 11.0659C16.1163 11.7291 15.9856 12.3859 15.7318 12.9986C15.478 13.6113 15.106 14.1681 14.6371 14.6371C14.1681 15.106 13.6113 15.478 12.9986 15.7318C12.3859 15.9856 11.7291 16.1163 11.0659 16.1163Z" fill="white"/>
</svg>
